PathFileType	4	(X/Y/Z)	F:\MotionCapture\20160217\3\Generated_files\P_3_test01-Dynamic.trc
DataRate	CameraRate	NumFrames	NumMarkers	Units	OrigDataRate	OrigDataStartFrame	OrigNumFrames
120.00	120.00	      8	39	mm	120.00	884	      2357
Frame#	Time	Top.Head			Front.Head			Rear.Head			R.Shoulder			R.Offset			R.Elbow			R.Wrist			L.Shoulder			L.Elbow			L.Wrist			R.ASIS			L.ASIS			V.Sacral			R.Thigh			R.Knee			R.Shank			R.Ankle			R.Heel			R.Toe			L.Thigh			L.Knee			L.Shank			L.Ankle			L.Heel			L.Toe			R1			R2			R3			R4			R5			R6			R7			L1			L2			L3			L4			L5			L6			L7			V_Mid_ASIS			V_Pelvis_Origin			V_R.Hip_JC			V_L.Hip_JC			V_R.Knee_JC			V_L.Knee_JC			V_R.Ankle_JC			V_L.Ankle_JC			V_Mid_Hip			V_Mid_Shoulder			V_R.Hand			V_L.Hand			V_R.Toe_Offset_Static			V_L.Toe_Offset_Static			V_R.Toe_Offset			V_L.Toe_Offset			
		X1	Y1	Z1	X2	Y2	Z2	X3	Y3	Z3	X4	Y4	Z4	X5	Y5	Z5	X6	Y6	Z6	X7	Y7	Z7	X8	Y8	Z8	X9	Y9	Z9	X10	Y10	Z10	X11	Y11	Z11	X12	Y12	Z12	X13	Y13	Z13	X14	Y14	Z14	X15	Y15	Z15	X16	Y16	Z16	X17	Y17	Z17	X18	Y18	Z18	X19	Y19	Z19	X20	Y20	Z20	X21	Y21	Z21	X22	Y22	Z22	X23	Y23	Z23	X24	Y24	Z24	X25	Y25	Z25	X26	Y26	Z26	X27	Y27	Z27	X28	Y28	Z28	X29	Y29	Z29	X30	Y30	Z30	X31	Y31	Z31	X32	Y32	Z32	X33	Y33	Z33	X34	Y34	Z34	X35	Y35	Z35	X36	Y36	Z36	X37	Y37	Z37	X38	Y38	Z38	X39	Y39	Z39	

884	7.358	-154.81664	-26.46095	1895.70642	-81.26109	-28.36867	1776.52930	-281.00046	-17.15669	1869.67078	-306.41016	-204.15453	1632.87695	-437.13431	57.84191	1489.37830	-278.99274	-364.15884	1338.47156	-34.80836	-303.64261	1392.00464	-273.51596	176.22128	1636.19360	-280.65045	331.23175	1336.48486	-37.65104	258.50226	1353.80518	-275.40903	-157.31572	1155.95410	-236.94481	120.88599	1159.18127	-472.56454	13.54779	1177.14331	-235.40062	-145.16093	777.79242	-313.73721	-195.00323	662.65009	-291.39139	-141.43927	427.36838	-365.11462	-209.29520	266.63443	-412.47263	-135.23097	277.34564	-251.65091	-198.82639	147.69067	-208.71553	110.51464	822.17578	-288.25067	184.92628	667.40564	-266.50446	127.66705	520.90479	-340.45358	211.63181	261.81567	-389.76300	148.88527	272.33142	-225.50557	210.11906	154.49982	-213.44678	-180.51222	119.18139	-234.12640	-166.49287	158.53214	-302.08286	-128.39946	236.14536	-369.36743	-113.64877	261.93634	-398.60632	-182.58234	253.63467	-343.74994	-214.05299	197.85229	-295.20444	-227.18686	148.03864	-186.91562	184.78329	129.69487	-208.16428	175.31772	160.92990	-277.42798	127.50938	228.47716	-349.83203	119.96487	258.95694	-371.63300	190.07549	253.82947	-314.42471	221.77028	203.30463	-265.04019	235.08801	163.64095																																																	228.59250	6.48265	-55.47583	
885	7.367	-152.18234	-27.44886	1901.13489	-79.42447	-29.22205	1781.46985	-278.29858	-17.86728	1876.11243	-306.36963	-204.63347	1638.62793	-436.85803	57.69016	1494.95422	-279.29239	-365.65988	1344.87451	-35.74943	-304.08136	1402.13806	-273.22183	176.98570	1641.73743	-283.76138	332.25052	1342.39185	-39.42046	258.32889	1362.95142	-276.81979	-157.43240	1161.69641	-238.66464	121.18177	1163.84778	-474.20496	13.42389	1183.09778	-235.02235	-147.29852	785.43182	-313.98706	-194.96185	669.77008	-291.63849	-140.67992	433.97934	-366.45813	-207.92062	273.76105	-413.60852	-134.07079	285.37265	-254.67400	-195.22832	152.54527	-207.79457	111.44683	829.95746	-288.95792	184.84842	673.92700	-267.01099	127.41740	527.45593	-343.23849	211.28403	268.75394	-394.42099	148.72179	279.53949	-227.88681	208.33504	161.55954	-217.09543	-176.84071	124.20973	-237.72791	-163.49709	164.14536	-304.54559	-126.28331	242.90492	-371.58069	-112.12624	270.05298	-400.13382	-181.25812	261.55048	-345.97336	-211.84009	204.25302	-298.48761	-223.90916	153.73508	-190.15128	181.54201	137.28363	-211.12297	173.41785	167.92258	-280.98038	126.40629	235.36404	-354.28717	119.59906	265.77692	-374.54517	190.15912	260.45474	-317.38626	221.10544	210.24284	-267.02164	233.79373	171.06364																																																	-579.89716	-87.64213	1687.87573	
886	7.375	-150.23143	-28.17123	1906.12708	-78.21019	-29.80686	1785.71692	-276.65536	-19.11487	1882.04138	-306.50949	-205.22029	1643.68823	-436.93695	57.29327	1500.25317	-278.78598	-366.80405	1350.41553	-37.16011	-304.99741	1411.23840	-271.78738	177.68935	1647.33923	-284.70908	332.45941	1347.65381	-42.37175	258.57162	1371.42578	-278.20792	-157.69743	1166.09204	-240.42241	121.24263	1167.65491	-475.54733	13.21329	1187.68665	-234.56447	-150.18936	791.79321	-314.51105	-195.44540	675.99988	-291.64258	-140.02249	440.29434	-368.25272	-206.06302	279.85599	-415.15253	-133.49084	292.84769	-258.58438	-191.10715	156.99017	-207.10936	112.74680	836.74127	-289.56628	184.48415	679.93640	-268.81076	126.58632	533.60895	-345.98300	210.66679	274.82196	-397.55637	149.11711	285.78357	-232.69597	206.52405	165.73254	-220.96674	-172.27051	128.66452	-241.04701	-159.27766	168.48674	-306.97925	-124.11735	249.06833	-373.10220	-110.91081	277.41006	-402.56134	-179.66850	268.67889	-347.93597	-209.20648	209.98361	-301.25824	-220.21895	158.77126	-193.64221	178.34290	143.14737	-215.02937	170.51778	174.05295	-285.55084	125.00082	241.19168	-358.55408	118.89714	272.07269	-378.02740	190.10635	267.05096	-320.41150	219.84575	216.16484	-270.14554	231.44093	176.93219	
887	7.383	-147.11998	-29.03548	1910.05896	-76.50594	-30.43665	1789.18530	-273.66101	-19.61257	1887.10071	-306.65848	-206.46936	1647.96216	-437.13202	56.96568	1505.25757	-278.76123	-368.05081	1354.76245	-38.25913	-305.83884	1419.56519	-271.46896	178.29201	1651.74365	-287.92850	333.11734	1352.01392	-44.98566	258.92233	1378.33826	-279.76205	-157.92680	1169.94482	-242.01689	121.80058	1171.32800	-477.55841	12.89224	1191.52466	-234.83156	-152.60391	797.04016	-313.58069	-195.38477	681.25977	-292.30435	-139.17433	445.53555	-368.93311	-204.66628	285.15186	-417.02081	-132.52740	299.74310	-261.64648	-186.49506	160.80348	-206.34761	114.04561	843.14917	-290.03735	184.10275	685.75800	-270.48816	125.53923	538.29443	-349.58954	209.50705	280.51843	-401.07748	148.60808	292.43179	-235.73242	203.92589	170.94125	-224.80647	-167.17671	132.44412	-244.54410	-155.04927	172.98633	-309.08957	-121.84744	255.18652	-375.47577	-109.48210	283.80399	-404.08591	-178.05695	274.82907	-350.36761	-206.67009	214.93686	-303.95639	-215.93950	163.11771	-198.71776	174.78032	147.11633	-219.39738	167.77785	178.63898	-289.78882	122.99240	246.94110	-362.57440	118.37364	278.00681	-382.04498	188.96928	272.91489	-324.04562	218.27292	221.47594	-274.75900	228.75139	181.73660	
888	7.392	-144.51291	-29.82257	1913.52710	-74.89861	-31.14115	1792.15820	-271.93176	-20.38264	1891.54297	-306.79407	-207.48567	1651.63550	-436.76761	57.00950	1510.07507	-278.71609	-368.52499	1358.64453	-39.89476	-306.71838	1426.39307	-270.27588	178.99008	1655.42151	-289.63763	332.66269	1355.84949	-47.04595	257.83762	1384.42517	-281.15112	-158.35269	1173.22107	-243.46098	122.51206	1174.54431	-479.58313	12.75791	1194.39685	-234.62791	-154.51129	801.57458	-313.40005	-195.17369	685.96649	-292.91077	-137.97484	450.81760	-370.91254	-202.99617	290.54996	-418.70880	-131.21872	305.76242	-265.16220	-182.13341	164.67685	-205.52220	115.52142	848.03680	-290.24786	184.00121	690.51929	-271.10214	124.61571	543.39246	-352.85535	208.04572	285.47617	-404.90363	147.63597	298.30777	-241.89122	200.37137	173.17412	-228.31082	-162.34842	136.24013	-247.19315	-151.15916	177.02954	-311.13580	-119.52623	260.24512	-377.16476	-107.77264	289.77359	-405.15121	-176.50970	280.06152	-352.45810	-203.87781	219.27103	-306.07227	-211.27751	167.30917	-204.63138	171.00383	149.79529	-224.09715	164.58229	181.98651	-294.54459	121.08284	251.66571	-367.19064	117.21131	283.89835	-385.33212	187.93140	278.23654	-328.72073	216.12407	225.66812	-278.43460	225.80846	185.08437																																																	-581.20044	-87.98744	1700.34338	-19.96941	179.16481	40.01400	
889	7.400	-142.34608	-30.74118	1915.72534	-73.77696	-31.91197	1794.06079	-269.03677	-20.76730	1895.11108	-306.53464	-208.26898	1654.70093	-436.30359	57.00288	1514.64539	-279.13815	-369.33777	1362.00708	-41.05942	-307.42389	1432.29993	-269.05017	179.69716	1658.82593	-291.93451	333.24994	1359.06860	-49.78226	257.89972	1389.37708	-282.89941	-158.75740	1176.02258	-245.18976	122.91087	1177.24426	-481.78110	12.07837	1196.47644	-234.04243	-155.56993	805.34265	-312.29559	-194.85255	690.17426	-293.05273	-136.73882	454.57919	-371.97763	-201.24120	294.34589	-420.01151	-129.92960	310.96823	-268.16238	-178.28079	167.68153	-205.44994	116.36443	852.48090	-290.25821	183.58777	694.33032	-272.97855	122.92422	546.94623	-356.26865	206.72430	289.70602	-408.55869	146.71997	303.84525	-247.17052	196.92967	175.53197	-230.41920	-157.13829	140.26596	-249.94872	-147.22873	180.37971	-312.94296	-117.26842	264.93030	-379.04083	-105.99943	294.98648	-406.82159	-174.56923	284.46576	-354.40549	-201.12704	222.83907	-308.22110	-207.87920	170.62190	-210.60426	167.27783	151.73030	-229.11360	161.27562	184.59201	-299.58066	118.70451	255.79550	-370.74881	115.20186	289.21512	-388.85049	186.53159	283.16345	-332.60159	214.17807	229.42799	-283.34586	222.91815	188.38766																																																	-25.94127	177.53012	45.91294	
890	7.408	-139.60031	-31.52599	1917.70105	-71.87681	-32.58568	1795.14978	-267.01514	-21.83696	1897.94409	-305.64325	-209.05661	1656.96680	-435.97717	57.01378	1518.43567	-280.20499	-369.77087	1364.43835	-42.10560	-307.86057	1437.03979	-267.88229	180.40532	1661.39600	-294.55267	332.69681	1361.70142	-52.02859	257.35294	1393.60645	-284.26181	-159.15103	1178.13672	-247.11334	123.39584	1179.63330	-483.48978	11.96560	1197.51196	-233.56250	-155.87068	808.30206	-311.53174	-194.42407	693.73541	-293.38254	-135.50624	457.97937	-372.93839	-200.24762	297.69620	-421.33408	-128.58826	315.23752	-270.51901	-173.05435	171.29567	-204.64731	117.29293	856.14832	-289.35703	182.81523	697.73364	-274.59003	121.39179	549.75769	-359.89090	205.42787	293.59106	-412.09549	145.59428	308.40045	-252.28802	191.91467	178.56764	-232.92996	-153.13379	143.39563	-251.60637	-143.49745	183.48949	-314.72083	-115.38186	268.74042	-380.65805	-104.42873	299.26822	-407.92792	-173.29900	288.34750	-356.31616	-198.74986	226.16367	-309.52518	-203.74881	173.87291	-217.96227	162.62218	153.47186	-234.88155	157.75180	186.59608	-303.73758	116.57397	259.32346	-375.56122	114.41297	293.41824	-393.04755	185.10748	287.90530	-337.09204	212.21207	232.77658	-288.06137	218.34154	191.41718																																																	-31.25307	175.15602	51.40464	
891	7.417	-136.69106	-32.49935	1918.47278	-70.67142	-33.23072	1795.64722	-264.03790	-21.96731	1900.06177	-304.95059	-209.37909	1658.65027	-435.93170	56.43260	1521.87463	-280.23184	-369.67386	1366.31470	-43.71121	-308.48105	1440.90674	-265.71405	180.28763	1663.65613	-296.12238	332.59171	1363.49280	-54.32400	257.96167	1396.24792	-285.57382	-159.65222	1179.95044	-249.05280	123.58634	1181.52991	-485.94833	11.35400	1197.98560	-233.47368	-155.57703	811.39905	-310.90985	-194.20442	696.53381	-293.83972	-134.00938	460.66547	-373.57108	-198.52307	300.63339	-421.59952	-128.47360	318.06769	-271.91269	-169.34854	173.27060	-205.04214	116.93498	859.04248	-288.53214	182.15642	700.14471	-275.62589	119.36068	552.45154	-363.26993	203.80017	296.67554	-416.40454	144.42603	312.59830	-256.78717	188.36607	180.55861	-234.21338	-149.87115	146.07008	-252.92902	-140.30974	186.72943	-316.10196	-113.08138	271.74573	-381.17117	-103.24721	302.72528	-409.01501	-171.89435	291.40332	-356.95398	-196.49617	228.25186	-310.39090	-200.99500	175.70236	-223.54706	158.33324	154.58144	-240.84816	153.33081	187.99977	-308.71936	114.21269	262.13342	-379.67148	112.96252	297.62775	-401.04581	186.98824	293.91653	-341.35950	209.68842	235.51317	-293.54929	215.88737	192.16397																																																	-178.79633	60.81178	158.03595	
